<?xml version="1.0" encoding="UTF-8"?>
<svg version="1.1" xmlns="http://www.w3.org/2000/svg" width="512" height="512">
<path d="M0 0 C0.56702637 0.34836914 1.13405273 0.69673828 1.71826172 1.05566406 C17.07452514 10.69868061 30.78530952 24.38773348 40 40 C40.37560059 40.63341309 40.75120117 41.26682617 41.13818359 41.91943359 C58.55070951 71.71929783 62.66942772 105.63446491 53.96875 139.02734375 C45.48050514 169.6093934 24.50103138 196.31540848 -2.875 212.1875 C-30.4303499 227.60416188 -65.0109565 233.53970253 -95.890625 225.2578125 C-97.26351403 224.84879788 -98.63341041 224.42959299 -100 224 C-100.68900391 223.78569336 -101.37800781 223.57138672 -102.08789062 223.35058594 C-121.26976811 217.17535171 -137.36067891 206.77967183 -152 193 C-152.59167969 192.47277344 -153.18335938 191.94554687 -153.79296875 191.40234375 C-174.02854263 172.60873476 -186.73013174 142.55441662 -188.14233398 115.24780273 C-188.617006 100.33971951 -187.88950111 86.42262045 -184 72 C-183.82871582 71.34032227 -183.65743164 70.68064453 -183.48095703 70.00097656 C-175.73828084 41.06820961 -155.247266 15.69063003 -130 0 C-129.42878418 -0.35642578 -128.85756836 -0.71285156 -128.26904297 -1.08007812 C-89.60800321 -24.62136726 -38.28206408 -23.81367978 0 0 Z M-129 42 C-129.76957031 42.76957031 -130.53914063 43.53914063 -131.33203125 44.33203125 C-147.97471456 61.88198179 -155.56034356 84.08743565 -155.421875 108.01220703 C-155.03583441 122.02903604 -151.63413643 134.63127106 -145 147 C-144.49855469 147.99257812 -143.99710938 148.98515625 -143.48046875 150.0078125 C-132.56562225 170.35032447 -112.83276125 185.05164443 -91.09570312 192.11572266 C-68.02717283 198.95964533 -43.56263526 196.45104335 -22.32348633 185.17797852 C-15.26242554 181.20643774 -9.02293764 176.3920571 -3 171 C-2.36707031 170.44957031 -1.73414063 169.89914063 -1.08203125 169.33203125 C14.50823751 154.883384 24.41916718 132.20807696 25.22265625 111.16796875 C25.88952287 82.94503609 16.74638546 60.48387113 -2.625 39.9375 C-19.16191096 23.75676866 -41.82697196 15.29004817 -64.75 14.6875 C-89.60290684 15.1559029 -111.41726579 24.41726579 -129 42 Z " fill="#000000" transform="translate(321,44)"/>
<path d="M0 0 C0.96594086 0.00054382 1.93188171 0.00108765 2.92709351 0.00164795 C18.82562753 0.04267558 34.10512663 0.97210178 49.6875 4.375 C51.17467529 4.69645996 51.17467529 4.69645996 52.69189453 5.02441406 C72.69584057 9.49868101 91.66620875 16.63246438 109.6875 26.375 C110.2861084 26.69436523 110.8847168 27.01373047 111.50146484 27.34277344 C150.16590155 48.1029098 181.74964144 82.67940879 194.9375 124.9375 C199.12046644 139.02024457 203.66329972 157.69713043 199.625 172.1875 C196.70193845 176.99640771 193.07686484 180.57854505 187.6875 182.375 C181.7047376 182.96154533 177.58508878 181.68619589 172.6875 178.375 C169.28841212 174.71444382 167.63981114 172.14928038 167.29296875 167.21875 C165.87152279 148.93780941 162.86876038 132.87111117 154.6875 116.375 C154.2028125 115.37855469 153.718125 114.38210938 153.21875 113.35546875 C134.88184782 77.75131701 98.65218487 54.80899529 61.625 42.68359375 C10.62280467 26.77501047 -45.00265831 31.65674959 -92.38671875 56.23828125 C-102.40601071 61.59295098 -111.68073711 67.98655395 -120.3125 75.375 C-121.13234375 76.07238281 -121.9521875 76.76976562 -122.796875 77.48828125 C-148.1678544 99.66819026 -162.8661229 128.47836559 -165.61328125 162.05078125 C-165.71189453 163.60345703 -165.71189453 163.60345703 -165.8125 165.1875 C-166.22852975 170.92391024 -167.4273187 174.58903877 -171.6875 178.625 C-176.62414931 181.91609954 -180.33587071 182.89926573 -186.3125 182.375 C-191.68374524 180.51150675 -195.21958126 177.05971405 -198.3125 172.375 C-205.54043675 149.47978631 -192.38035872 117.84690037 -182.23046875 97.796875 C-161.53282937 58.4761688 -123.40425299 29.70861149 -82.3125 14.375 C-81.49346191 14.06723633 -80.67442383 13.75947266 -79.83056641 13.44238281 C-53.9653945 3.88709638 -27.46783662 -0.05837258 0 0 Z " fill="#000000" transform="translate(255.3125,303.625)"/>
</svg>
